<mxfile host="65bd71144e">
    <diagram id="wQcZCOaijW5SIlA2i32u" name="Page-1">
        <mxGraphModel dx="1751" dy="453" grid="1" gridSize="10" guides="1" tooltips="1" connect="1" arrows="1" fold="1" page="1" pageScale="1" pageWidth="827" pageHeight="1169" background="#ffffff" math="0" shadow="0">
            <root>
                <mxCell id="0"/>
                <mxCell id="1" parent="0"/>
                <mxCell id="19" style="edgeStyle=none;html=1;exitX=0.5;exitY=1;exitDx=0;exitDy=0;entryX=0.5;entryY=0;entryDx=0;entryDy=0;strokeColor=#000000;" parent="1" source="2" target="18" edge="1">
                    <mxGeometry relative="1" as="geometry"/>
                </mxCell>
                <mxCell id="2" value="Vous vous promenez dans le village du royaume pour assasiner le roi." style="rounded=1;whiteSpace=wrap;html=1;labelBorderColor=none;labelBackgroundColor=none;fillColor=none;fontColor=#000000;strokeColor=#000000;strokeWidth=3;" parent="1" vertex="1">
                    <mxGeometry x="-7.809999999999945" y="50" width="205" height="180" as="geometry"/>
                </mxCell>
                <mxCell id="22" style="edgeStyle=none;html=1;exitX=0.5;exitY=1;exitDx=0;exitDy=0;entryX=0.5;entryY=0;entryDx=0;entryDy=0;strokeColor=#000000;" parent="1" source="18" target="77" edge="1">
                    <mxGeometry relative="1" as="geometry">
                        <Array as="points">
                            <mxPoint x="94.69000000000005" y="460"/>
                        </Array>
                        <mxPoint x="94.69000000000005" y="530" as="targetPoint"/>
                    </mxGeometry>
                </mxCell>
                <mxCell id="25" value="Entrer à l''intérieur" style="edgeLabel;html=1;align=center;verticalAlign=middle;resizable=0;points=[];labelBackgroundColor=none;fontColor=#000000;" parent="22" vertex="1" connectable="0">
                    <mxGeometry x="0.0898" y="-3" relative="1" as="geometry">
                        <mxPoint x="3" y="-10" as="offset"/>
                    </mxGeometry>
                </mxCell>
                <mxCell id="26" style="edgeStyle=none;html=1;exitX=1;exitY=0.5;exitDx=0;exitDy=0;entryX=0;entryY=0.5;entryDx=0;entryDy=0;strokeColor=#000000;" parent="1" source="18" target="28" edge="1">
                    <mxGeometry relative="1" as="geometry">
                        <mxPoint x="309.69000000000005" y="365" as="targetPoint"/>
                    </mxGeometry>
                </mxCell>
                <mxCell id="27" value="Ne pas entrer" style="edgeLabel;html=1;align=center;verticalAlign=middle;resizable=0;points=[];labelBackgroundColor=none;fontColor=#000000;" parent="26" vertex="1" connectable="0">
                    <mxGeometry x="-0.2401" relative="1" as="geometry">
                        <mxPoint x="14" as="offset"/>
                    </mxGeometry>
                </mxCell>
                <mxCell id="18" value="Vous voyez une &lt;br&gt;taverne et trouvez que vous pourriez avoir de l'information à l'intérieur" style="rhombus;whiteSpace=wrap;html=1;rounded=1;labelBorderColor=none;labelBackgroundColor=none;fillColor=none;fontColor=#000000;strokeColor=#000000;strokeWidth=3;" parent="1" vertex="1">
                    <mxGeometry x="-9.680000000000064" y="260" width="208.75" height="210" as="geometry"/>
                </mxCell>
                <mxCell id="30" style="edgeStyle=orthogonalEdgeStyle;html=1;exitX=1;exitY=0.5;exitDx=0;exitDy=0;strokeColor=#000000;entryX=0.5;entryY=0;entryDx=0;entryDy=0;" parent="1" source="72" target="81" edge="1">
                    <mxGeometry relative="1" as="geometry">
                        <mxPoint x="159.69000000000005" y="755" as="sourcePoint"/>
                        <mxPoint x="290" y="950" as="targetPoint"/>
                        <Array as="points">
                            <mxPoint x="335" y="803"/>
                        </Array>
                    </mxGeometry>
                </mxCell>
                <mxCell id="31" value="Ne pas les prendre" style="edgeLabel;html=1;align=center;verticalAlign=middle;resizable=0;points=[];labelBackgroundColor=none;fontColor=#000000;" parent="30" vertex="1" connectable="0">
                    <mxGeometry x="-0.2465" y="-2" relative="1" as="geometry">
                        <mxPoint x="2" y="-1" as="offset"/>
                    </mxGeometry>
                </mxCell>
                <mxCell id="36" style="edgeStyle=orthogonalEdgeStyle;html=1;exitX=0.5;exitY=1;exitDx=0;exitDy=0;entryX=0.5;entryY=0;entryDx=0;entryDy=0;strokeColor=#000000;" parent="1" source="72" target="29" edge="1">
                    <mxGeometry relative="1" as="geometry">
                        <mxPoint x="94.69000000000005" y="879.9999999999998" as="targetPoint"/>
                        <mxPoint x="94.69000000000005" y="790" as="sourcePoint"/>
                    </mxGeometry>
                </mxCell>
                <mxCell id="37" value="Les prendre" style="edgeLabel;html=1;align=center;verticalAlign=middle;resizable=0;points=[];labelBackgroundColor=none;fontColor=#000000;" parent="36" vertex="1" connectable="0">
                    <mxGeometry x="0.2187" y="-1" relative="1" as="geometry">
                        <mxPoint as="offset"/>
                    </mxGeometry>
                </mxCell>
                <mxCell id="32" style="edgeStyle=orthogonalEdgeStyle;html=1;exitX=1;exitY=0.5;exitDx=0;exitDy=0;entryX=1;entryY=0.5;entryDx=0;entryDy=0;strokeColor=#000000;" parent="1" source="28" target="2" edge="1">
                    <mxGeometry relative="1" as="geometry">
                        <Array as="points">
                            <mxPoint x="479.69000000000005" y="365"/>
                            <mxPoint x="479.69000000000005" y="140"/>
                        </Array>
                    </mxGeometry>
                </mxCell>
                <mxCell id="28" value="Se fait tuer par des bandits" style="rounded=1;whiteSpace=wrap;html=1;labelBorderColor=none;labelBackgroundColor=none;fillColor=none;fontColor=#000000;strokeColor=#000000;strokeWidth=3;" parent="1" vertex="1">
                    <mxGeometry x="299.69000000000005" y="330" width="130" height="70" as="geometry"/>
                </mxCell>
                <mxCell id="41" style="edgeStyle=orthogonalEdgeStyle;html=1;exitX=0.5;exitY=1;exitDx=0;exitDy=0;entryX=0.5;entryY=0;entryDx=0;entryDy=0;strokeColor=#000000;" parent="1" source="29" target="40" edge="1">
                    <mxGeometry relative="1" as="geometry"/>
                </mxCell>
                <mxCell id="29" value="Après avoir pris les dagues, vous décidez d'aller vers le comptoir du bar.&amp;nbsp;" style="rounded=1;whiteSpace=wrap;html=1;labelBorderColor=none;labelBackgroundColor=none;fillColor=none;fontColor=#000000;strokeColor=#000000;strokeWidth=3;" parent="1" vertex="1">
                    <mxGeometry x="29.700000000000045" y="940" width="130" height="70" as="geometry"/>
                </mxCell>
                <mxCell id="43" style="edgeStyle=orthogonalEdgeStyle;html=1;exitX=0.5;exitY=1;exitDx=0;exitDy=0;entryX=0.5;entryY=0;entryDx=0;entryDy=0;strokeColor=#000000;" parent="1" source="40" target="42" edge="1">
                    <mxGeometry relative="1" as="geometry"/>
                </mxCell>
                <mxCell id="45" value="Parler poliment" style="edgeLabel;html=1;align=center;verticalAlign=middle;resizable=0;points=[];labelBackgroundColor=none;fontColor=#000000;" parent="43" vertex="1" connectable="0">
                    <mxGeometry x="-0.2492" y="3" relative="1" as="geometry">
                        <mxPoint as="offset"/>
                    </mxGeometry>
                </mxCell>
                <mxCell id="47" style="edgeStyle=orthogonalEdgeStyle;html=1;exitX=1;exitY=0.5;exitDx=0;exitDy=0;entryX=0;entryY=0.5;entryDx=0;entryDy=0;strokeColor=#000000;" parent="1" source="40" target="46" edge="1">
                    <mxGeometry relative="1" as="geometry"/>
                </mxCell>
                <mxCell id="49" value="L'intimider" style="edgeLabel;html=1;align=center;verticalAlign=middle;resizable=0;points=[];labelBackgroundColor=none;fontColor=#000000;" parent="47" vertex="1" connectable="0">
                    <mxGeometry x="-0.2975" y="1" relative="1" as="geometry">
                        <mxPoint x="13" y="1" as="offset"/>
                    </mxGeometry>
                </mxCell>
                <mxCell id="40" value="&lt;font style=&quot;font-size: 12px;&quot;&gt;Un soldat est assit a coté de vous, &lt;br&gt;Comment lui demander de l'information&lt;/font&gt;" style="rhombus;whiteSpace=wrap;html=1;rounded=1;labelBorderColor=none;labelBackgroundColor=none;fillColor=none;fontColor=#000000;strokeColor=#000000;strokeWidth=3;" parent="1" vertex="1">
                    <mxGeometry x="-52.17000000000007" y="1040" width="291.86" height="230" as="geometry"/>
                </mxCell>
                <mxCell id="52" style="edgeStyle=orthogonalEdgeStyle;html=1;exitX=0.5;exitY=1;exitDx=0;exitDy=0;entryX=0.5;entryY=0;entryDx=0;entryDy=0;strokeColor=#000000;" parent="1" source="42" target="57" edge="1">
                    <mxGeometry relative="1" as="geometry">
                        <mxPoint x="94.69000000000005" y="1590" as="targetPoint"/>
                    </mxGeometry>
                </mxCell>
                <mxCell id="42" value="Il vous répond calmement que celui-ci&amp;nbsp; sait seulement&amp;nbsp; que le roi est présentement dans le chateau. Vous décidez d'aller au chateau." style="rounded=1;whiteSpace=wrap;html=1;labelBorderColor=none;labelBackgroundColor=none;fillColor=none;fontColor=#000000;strokeColor=#000000;strokeWidth=3;" parent="1" vertex="1">
                    <mxGeometry x="-5.309999999999945" y="1350" width="200" height="100" as="geometry"/>
                </mxCell>
                <mxCell id="48" style="edgeStyle=orthogonalEdgeStyle;html=1;exitX=1;exitY=0.5;exitDx=0;exitDy=0;entryX=1;entryY=0.5;entryDx=0;entryDy=0;strokeColor=#000000;" parent="1" source="46" target="2" edge="1">
                    <mxGeometry relative="1" as="geometry">
                        <Array as="points">
                            <mxPoint x="480" y="1155"/>
                            <mxPoint x="480" y="140"/>
                        </Array>
                    </mxGeometry>
                </mxCell>
                <mxCell id="46" value="&amp;nbsp;il décide de vous tuer" style="rounded=1;whiteSpace=wrap;html=1;labelBorderColor=none;labelBackgroundColor=none;fillColor=none;fontColor=#000000;strokeColor=#000000;strokeWidth=3;" parent="1" vertex="1">
                    <mxGeometry x="349.69000000000005" y="1125" width="110" height="60" as="geometry"/>
                </mxCell>
                <mxCell id="63" style="edgeStyle=orthogonalEdgeStyle;html=1;exitX=1;exitY=0.5;exitDx=0;exitDy=0;entryX=1;entryY=0.5;entryDx=0;entryDy=0;strokeColor=#000000;" parent="1" source="55" target="2" edge="1">
                    <mxGeometry relative="1" as="geometry">
                        <Array as="points">
                            <mxPoint x="480" y="1655"/>
                            <mxPoint x="480" y="140"/>
                        </Array>
                    </mxGeometry>
                </mxCell>
                <mxCell id="55" value="vous vous fetes tuer par un soldat" style="rounded=1;whiteSpace=wrap;html=1;labelBorderColor=none;labelBackgroundColor=none;fillColor=none;fontColor=#000000;strokeColor=#000000;strokeWidth=3;" parent="1" vertex="1">
                    <mxGeometry x="319.69000000000005" y="1615" width="122.5" height="80" as="geometry"/>
                </mxCell>
                <mxCell id="58" style="edgeStyle=none;html=1;exitX=1;exitY=0.5;exitDx=0;exitDy=0;strokeColor=#000000;" parent="1" source="57" target="55" edge="1">
                    <mxGeometry relative="1" as="geometry"/>
                </mxCell>
                <mxCell id="61" value="Explorer le chateau" style="edgeLabel;html=1;align=center;verticalAlign=middle;resizable=0;points=[];labelBackgroundColor=none;fontColor=#000000;" parent="58" vertex="1" connectable="0">
                    <mxGeometry x="-0.3142" y="-2" relative="1" as="geometry">
                        <mxPoint x="22" y="-2" as="offset"/>
                    </mxGeometry>
                </mxCell>
                <mxCell id="60" style="edgeStyle=none;html=1;exitX=0.5;exitY=1;exitDx=0;exitDy=0;entryX=0.5;entryY=0;entryDx=0;entryDy=0;strokeColor=#000000;" parent="1" source="57" target="59" edge="1">
                    <mxGeometry relative="1" as="geometry"/>
                </mxCell>
                <mxCell id="62" value="Aller vers la chambre" style="edgeLabel;html=1;align=center;verticalAlign=middle;resizable=0;points=[];labelBackgroundColor=none;fontColor=#000000;" parent="60" vertex="1" connectable="0">
                    <mxGeometry x="-0.3251" y="-3" relative="1" as="geometry">
                        <mxPoint as="offset"/>
                    </mxGeometry>
                </mxCell>
                <mxCell id="57" value="Dans le chateau vous entendez que le &lt;br&gt;roi est dans sa chambre" style="rhombus;whiteSpace=wrap;html=1;rounded=1;labelBorderColor=none;labelBackgroundColor=none;fillColor=none;fontColor=#000000;strokeColor=#000000;strokeWidth=3;" parent="1" vertex="1">
                    <mxGeometry x="9.690000000000055" y="1570" width="170" height="170" as="geometry"/>
                </mxCell>
                <mxCell id="65" style="edgeStyle=orthogonalEdgeStyle;html=1;exitX=0.5;exitY=1;exitDx=0;exitDy=0;strokeColor=#000000;" parent="1" source="59" target="64" edge="1">
                    <mxGeometry relative="1" as="geometry"/>
                </mxCell>
                <mxCell id="59" value="Le roi est dans la chambre et vous regarde&amp;nbsp;&amp;nbsp;" style="rounded=1;whiteSpace=wrap;html=1;labelBorderColor=none;labelBackgroundColor=none;fillColor=none;fontColor=#000000;strokeColor=#000000;strokeWidth=3;" parent="1" vertex="1">
                    <mxGeometry x="-23.74000000000001" y="1870" width="235" height="60" as="geometry"/>
                </mxCell>
                <mxCell id="67" value="Non" style="edgeStyle=orthogonalEdgeStyle;html=1;exitX=1;exitY=0.5;exitDx=0;exitDy=0;entryX=0;entryY=0.5;entryDx=0;entryDy=0;strokeColor=#000000;labelBackgroundColor=none;fontColor=#000000;" parent="1" source="64" target="66" edge="1">
                    <mxGeometry relative="1" as="geometry"/>
                </mxCell>
                <mxCell id="70" style="edgeStyle=orthogonalEdgeStyle;html=1;exitX=0.5;exitY=1;exitDx=0;exitDy=0;strokeColor=#000000;" parent="1" source="64" target="69" edge="1">
                    <mxGeometry relative="1" as="geometry"/>
                </mxCell>
                <mxCell id="71" value="Oui" style="edgeLabel;html=1;align=center;verticalAlign=middle;resizable=0;points=[];labelBackgroundColor=none;fontColor=#000000;" parent="70" vertex="1" connectable="0">
                    <mxGeometry x="-0.2012" y="-3" relative="1" as="geometry">
                        <mxPoint as="offset"/>
                    </mxGeometry>
                </mxCell>
                <mxCell id="64" value="Avez-vous les dagues" style="rhombus;whiteSpace=wrap;html=1;rounded=1;labelBorderColor=none;labelBackgroundColor=none;fillColor=none;fontColor=#000000;strokeColor=#000000;strokeWidth=3;" parent="1" vertex="1">
                    <mxGeometry x="38.75999999999999" y="2010" width="110" height="110" as="geometry"/>
                </mxCell>
                <mxCell id="68" style="edgeStyle=orthogonalEdgeStyle;html=1;exitX=1;exitY=0.5;exitDx=0;exitDy=0;entryX=1;entryY=0.5;entryDx=0;entryDy=0;fontColor=#000000;strokeColor=#000000;" parent="1" source="66" target="2" edge="1">
                    <mxGeometry relative="1" as="geometry">
                        <Array as="points">
                            <mxPoint x="480" y="2065"/>
                            <mxPoint x="480" y="140"/>
                        </Array>
                    </mxGeometry>
                </mxCell>
                <mxCell id="66" value="Le roi appelle dautre soldats et vous vous fetes emprisonner" style="rounded=1;whiteSpace=wrap;html=1;labelBorderColor=none;labelBackgroundColor=none;fillColor=none;fontColor=#000000;strokeColor=#000000;strokeWidth=3;" parent="1" vertex="1">
                    <mxGeometry x="320.94000000000005" y="2035" width="120" height="60" as="geometry"/>
                </mxCell>
                <mxCell id="69" value="Vous assasinez le roi et vous&amp;nbsp; voous enfuyez. vous avez réussit à vous venger" style="rounded=1;whiteSpace=wrap;html=1;labelBorderColor=none;labelBackgroundColor=none;fillColor=none;fontColor=#000000;strokeColor=#000000;strokeWidth=3;" parent="1" vertex="1">
                    <mxGeometry x="34.690000000000055" y="2250" width="120" height="60" as="geometry"/>
                </mxCell>
                <mxCell id="72" value="&lt;font style=&quot;&quot;&gt;&lt;font style=&quot;font-size: 12px;&quot;&gt;Vous &lt;br&gt;voyez une paire de dagues &lt;br&gt;trainant dans un coin&lt;/font&gt;&lt;br&gt;&lt;/font&gt;" style="rhombus;whiteSpace=wrap;html=1;rounded=1;labelBorderColor=none;labelBackgroundColor=none;fillColor=none;fontColor=#000000;strokeColor=#000000;strokeWidth=3;" parent="1" vertex="1">
                    <mxGeometry x="-90" y="710" width="369.38" height="185" as="geometry"/>
                </mxCell>
                <mxCell id="75" value="&lt;h1&gt;Questions&lt;/h1&gt;&lt;p&gt;&lt;b&gt;Genre:&amp;nbsp; Aventure, Fantasy&lt;/b&gt;&lt;/p&gt;&lt;p&gt;&lt;b&gt;Inspiration: Par moi même ( avec un petit peu d'inspiration de la série The Dragon Prince )&lt;/b&gt;&lt;b&gt;&lt;br&gt;&lt;/b&gt;&lt;/p&gt;&lt;p&gt;&lt;b&gt;Nom: Vengeance&lt;/b&gt;&lt;b&gt;&lt;br&gt;&lt;/b&gt;&lt;/p&gt;&lt;p&gt;&lt;b&gt;Palette:&amp;nbsp;&lt;/b&gt;&lt;b&gt;&lt;br&gt;&lt;/b&gt;&lt;/p&gt;&lt;p&gt;&lt;b&gt;couleur de fond&amp;nbsp; du site: #060913&lt;/b&gt;&lt;/p&gt;&lt;p&gt;&lt;b&gt;couleur de fond du contenu: #35355F&lt;/b&gt;&lt;/p&gt;&lt;p&gt;&lt;b&gt;couleur de la police: #F0E5FA&lt;/b&gt;&lt;/p&gt;&lt;p&gt;&lt;b&gt;couleur de fond des boutons: #33424D&lt;/b&gt;&lt;/p&gt;&lt;p&gt;&lt;b&gt;couleur de fond des boutons en hover:&amp;nbsp; #FAE0F4&lt;/b&gt;&lt;/p&gt;&lt;p&gt;&lt;b&gt;couleur de la police des boutons: #D7DDEA&lt;/b&gt;&lt;/p&gt;&lt;p&gt;&lt;b&gt;couleur de la police des boutons en hover: #524459&lt;/b&gt;&lt;/p&gt;&lt;br&gt;&lt;p&gt;&lt;b&gt;&lt;br&gt;&lt;/b&gt;&lt;/p&gt;" style="text;html=1;strokeColor=none;fillColor=none;spacing=5;spacingTop=-20;whiteSpace=wrap;overflow=hidden;rounded=0;fontColor=#000000;" parent="1" vertex="1">
                    <mxGeometry x="-380" y="50" width="320" height="380" as="geometry"/>
                </mxCell>
                <mxCell id="80" style="edgeStyle=none;html=1;exitX=0.5;exitY=1;exitDx=0;exitDy=0;entryX=0.5;entryY=0;entryDx=0;entryDy=0;strokeColor=#000000;" parent="1" source="77" target="72" edge="1">
                    <mxGeometry relative="1" as="geometry"/>
                </mxCell>
                <mxCell id="77" value="Vous décidez d'entrer à l'intérieur de la taverne" style="rounded=1;whiteSpace=wrap;html=1;labelBorderColor=none;labelBackgroundColor=none;fillColor=none;fontColor=#000000;strokeColor=#000000;strokeWidth=3;" parent="1" vertex="1">
                    <mxGeometry x="29.70000000000005" y="540" width="130" height="70" as="geometry"/>
                </mxCell>
                <mxCell id="83" style="edgeStyle=orthogonalEdgeStyle;html=1;exitX=0;exitY=0.5;exitDx=0;exitDy=0;entryX=0.5;entryY=0;entryDx=0;entryDy=0;strokeColor=#000000;" edge="1" parent="1" source="81" target="40">
                    <mxGeometry relative="1" as="geometry">
                        <Array as="points">
                            <mxPoint x="270" y="1030"/>
                            <mxPoint x="94" y="1030"/>
                        </Array>
                    </mxGeometry>
                </mxCell>
                <mxCell id="81" value="Après avoir pris les dagues, vous décidez d'aller vers le comptoir du bar.&amp;nbsp;" style="rounded=1;whiteSpace=wrap;html=1;labelBorderColor=none;labelBackgroundColor=none;fillColor=none;fontColor=#000000;strokeColor=#000000;strokeWidth=3;" vertex="1" parent="1">
                    <mxGeometry x="270.00000000000006" y="1000" width="130" height="70" as="geometry"/>
                </mxCell>
            </root>
        </mxGraphModel>
    </diagram>
</mxfile>